<?xml version="1.0" standalone="no"?>
<!DOCTYPE svg PUBLIC "-//W3C//DTD SVG 20010904//EN"
 "http://www.w3.org/TR/2001/REC-SVG-20010904/DTD/svg10.dtd">
<svg version="1.0" xmlns="http://www.w3.org/2000/svg"
 width="221.000000pt" height="221.000000pt" viewBox="0 0 221.000000 221.000000"
 preserveAspectRatio="xMidYMid meet">
<metadata>
Created by potrace 1.14, written by Peter Selinger 2001-2017
</metadata>
<g transform="translate(0.000000,221.000000) scale(0.100000,-0.100000)"
fill="#000000" stroke="none">
<path d="M1057 2164 c-1 -1 -42 -4 -92 -7 -128 -8 -223 -28 -305 -64 -45 -20
-120 -66 -120 -74 0 -4 30 -4 68 -2 134 10 327 -46 537 -157 111 -58 205 -93
281 -105 108 -17 342 0 368 25 14 14 -75 140 -144 204 -110 102 -231 154 -400
172 -50 5 -189 11 -193 8z"/>
<path d="M1780 2012 c-21 -7 -30 -24 -21 -37 16 -21 121 -224 121 -234 0 -6
-3 -10 -7 -9 -5 1 -42 -5 -83 -14 -101 -23 -160 -29 -255 -29 -151 1 -254 31
-460 134 -124 62 -275 123 -275 112 0 -3 -12 0 -27 6 -30 11 -154 13 -228 4
-71 -10 -162 -42 -215 -75 -80 -51 -126 -114 -154 -209 -18 -61 -22 -161 -6
-161 6 0 10 6 10 13 0 24 83 100 139 126 51 23 67 26 171 25 153 -1 210 -16
505 -134 269 -107 392 -143 530 -155 39 -4 81 -8 95 -9 14 -2 34 -4 45 -5 16
-1 17 -3 5 -10 -32 -21 -233 -34 -300 -20 -19 4 -52 10 -73 13 -20 3 -144 47
-275 97 -298 115 -344 128 -502 133 -90 4 -226 -34 -280 -77 -35 -27 -60 -74
-75 -142 -2 -5 -10 -37 -18 -70 -20 -74 -55 -271 -63 -345 -3 -30 -7 -68 -9
-85 -6 -45 -6 -255 0 -295 12 -88 17 -109 36 -168 12 -35 36 -85 54 -112 28
-42 31 -50 16 -50 -10 0 -37 21 -60 46 -40 44 -43 46 -61 29 -49 -44 -72 -159
-38 -195 22 -24 46 -25 113 -4 79 24 162 28 235 11 36 -9 85 -19 110 -22 25
-4 56 -8 70 -10 25 -4 91 -10 210 -20 36 -3 92 -8 125 -10 67 -6 383 -6 460
-1 195 14 252 19 344 32 57 7 122 19 144 25 58 16 122 14 192 -5 32 -9 72 -16
88 -16 36 0 87 48 88 84 1 14 2 32 2 39 3 41 -15 79 -47 98 -48 28 -49 34 -31
119 13 59 15 80 22 170 5 52 8 178 7 280 0 152 -4 204 -22 292 -25 117 -56
214 -98 308 l-27 60 26 37 c77 112 73 214 -10 280 -16 12 -57 44 -93 72 -79
62 -130 90 -150 83z"/>
</g>
</svg>
